<svg width="130" height="130" viewBox="0 0 130 130" xmlns="http://www.w3.org/2000/svg">
  <defs>
    <linearGradient id="emoni-grad" x1="1.01" y1="46.11" x2="100.83" y2="46.11" gradientUnits="userSpaceOnUse">
      <stop stop-color="#21d55c" offset="0" />
      <stop stop-color="#11903b" offset="1" />
    </linearGradient>
  </defs>
  <g transform="translate(5,10)">
    <g transform="translate(8.76,6.72)">
      <path
        fill="url(#emoni-grad)"
        d="M 98.54,76.06 53.37,102.31 a 4.58,4.58 0 0 1 -4.58,0.01 L 3.47,76.33 A 4.58,4.58 0 0 1 1.17,72.37 L 1.02,20.13 A 4.58,4.58 0 0 1 3.3,16.15 L 48.47,-10.1 a 4.58,4.58 0 0 1 4.58,-0.01 l 45.32,25.99 a 4.58,4.58 0 0 1 2.3,3.96 l 0.15,52.24 a 4.58,4.58 0 0 1 -2.28,3.98 z"
        transform="rotate(60,41.31,61.96)"
      />
    </g>
    <g transform="translate(8.76,6.72)">
      <path
        fill="#ffffff"
        fill-rule="evenodd"
        d="M 95.64,39.52 C 94.22,69.55 78.85,84.44 49.31,84.2 48.12,87.04 47.65,90.11 48.12,93.42 46.47,93.19 45.76,92.95 45.76,92.95 44.34,79 58.29,70.73 69.64,65.76 56.63,70.25 48.6,76.16 45.29,83.26 45.05,46.38 79.33,60.09 95.64,39.52 Z m -68.79,-6.38 c 15.6,4.96 24.11,13.71 25.77,26 -3.31,2.84 -6.15,6.38 -7.56,11.58 -1.65,-3.31 -3.07,-7.8 -3.78,-13 0.47,5.91 1.65,10.87 3.31,14.66 -0.47,1.65 -0.71,3.07 -0.71,4.96 C 23.25,68.6 36.96,48.03 25.85,33.14 Z"
      />
    </g>
  </g>
</svg>
