<?xml version="1.0" encoding="UTF-8" standalone="no"?>
<!-- Created with Inkscape (http://www.inkscape.org/) -->

<svg
   width="375.64203mm"
   height="166.26993mm"
   viewBox="0 0 375.64203 166.26993"
   version="1.1"
   id="svg422"
   xml:space="preserve"
   inkscape:version="1.2.2 (732a01da63, 2022-12-09)"
   sodipodi:docname="EMONI_Logo_Text_White_Inkscape.svg"
   inkscape:export-filename="C:\Users\tkoessler\Documents\Git\enny\enny-cloud-app-service\frontend\public\img\logo-text.svg"
   inkscape:export-xdpi="96"
   inkscape:export-ydpi="96"
   xmlns:inkscape="http://www.inkscape.org/namespaces/inkscape"
   xmlns:sodipodi="http://sodipodi.sourceforge.net/DTD/sodipodi-0.dtd"
   xmlns:xlink="http://www.w3.org/1999/xlink"
   xmlns="http://www.w3.org/2000/svg"
   xmlns:svg="http://www.w3.org/2000/svg"><sodipodi:namedview
     id="namedview424"
     pagecolor="#ffffff"
     bordercolor="#666666"
     borderopacity="1.0"
     inkscape:showpageshadow="2"
     inkscape:pageopacity="0.0"
     inkscape:pagecheckerboard="0"
     inkscape:deskcolor="#d1d1d1"
     inkscape:document-units="mm"
     showgrid="false"
     inkscape:zoom="0.52221046"
     inkscape:cx="629.05672"
     inkscape:cy="444.26533"
     inkscape:window-width="1920"
     inkscape:window-height="1009"
     inkscape:window-x="-8"
     inkscape:window-y="-8"
     inkscape:window-maximized="1"
     inkscape:current-layer="layer1" /><defs
     id="defs419"><linearGradient
       inkscape:collect="always"
       id="linearGradient929"><stop
         style="stop-color:#21d55c;stop-opacity:1;"
         offset="0"
         id="stop925" /><stop
         style="stop-color:#11903b;stop-opacity:1;"
         offset="1"
         id="stop927" /></linearGradient><inkscape:path-effect
       effect="fillet_chamfer"
       id="path-effect236-1"
       is_visible="true"
       lpeversion="1"
       nodesatellites_param="F,0,0,1,0,2.6458333,0,1 @ F,0,0,1,0,2.6458333,0,1 @ F,0,0,1,0,2.6458333,0,1 @ F,0,0,1,0,2.6458333,0,1 @ F,0,0,1,0,2.6458333,0,1 @ F,0,0,1,0,2.6458333,0,1"
       unit="px"
       method="auto"
       mode="F"
       radius="10"
       chamfer_steps="1"
       flexible="false"
       use_knot_distance="true"
       apply_no_radius="true"
       apply_with_radius="true"
       only_selected="false"
       hide_knots="false" /><linearGradient
       inkscape:collect="always"
       xlink:href="#linearGradient929"
       id="linearGradient931"
       x1="1.0133215"
       y1="46.106091"
       x2="100.82541"
       y2="46.106091"
       gradientUnits="userSpaceOnUse" /><filter
       style="color-interpolation-filters:sRGB"
       inkscape:label="Drop Shadow"
       id="filter20743-1"
       x="-0.072146297"
       y="-0.076551989"
       width="1.1743535"
       height="1.1399055"><feFlood
         flood-opacity="0.498039"
         flood-color="rgb(0,0,0)"
         result="flood"
         id="feFlood20733-7" /><feComposite
         in="flood"
         in2="SourceGraphic"
         operator="in"
         result="composite1"
         id="feComposite20735-5" /><feGaussianBlur
         in="composite1"
         stdDeviation="3"
         result="blur"
         id="feGaussianBlur20737-2" /><feOffset
         dx="3"
         dy="-1.5"
         result="offset"
         id="feOffset20739-4" /><feComposite
         in="SourceGraphic"
         in2="offset"
         operator="over"
         result="composite2"
         id="feComposite20741-7" /></filter></defs><g
     inkscape:label="Ebene 1"
     inkscape:groupmode="layer"
     id="layer1"
     transform="translate(11.198166,-8.933274)"><g
       id="g714"
       transform="translate(4.1971902,22.068228)"><g
         inkscape:label="Ebene 1"
         id="layer1-2"
         transform="translate(8.7567849,6.7185259)"><path
           sodipodi:type="star"
           style="fill:url(#linearGradient931);fill-opacity:1;stroke:#000000;stroke-width:0;stroke-opacity:1;filter:url(#filter20743-1)"
           id="path234"
           inkscape:flatsided="true"
           sodipodi:sides="6"
           sodipodi:cx="50.919365"
           sodipodi:cy="46.106091"
           sodipodi:r1="57.533283"
           sodipodi:r2="49.825287"
           sodipodi:arg1="0.52078456"
           sodipodi:arg2="1.0443833"
           inkscape:rounded="0"
           inkscape:randomized="0"
           d="M 98.537781,76.061759 53.368903,102.30979 a 4.5827177,4.5827177 179.83876 0 1 -4.5827,0.0129 L 3.4703056,76.3293 A 4.5827177,4.5827177 59.838757 0 1 1.1677869,72.367014 L 1.0207679,20.125605 A 4.5827177,4.5827177 119.83876 0 1 3.3009488,16.150422 L 48.469827,-10.097605 a 4.5827177,4.5827177 179.83876 0 1 4.5827,-0.0129 l 45.315897,25.993383 a 4.5827177,4.5827177 59.838757 0 1 2.302516,3.962286 l 0.14702,52.24141 a 4.5827177,4.5827177 119.83876 0 1 -2.280179,3.975182 z"
           inkscape:path-effect="#path-effect236-1"
           transform="rotate(60,41.307456,61.960467)" /></g><g
         id="layer2"
         inkscape:label="Ebene 2"
         transform="translate(8.7567849,6.7185259)"><path
           d="M 95.638753,39.524024 C 94.220401,69.546017 78.854394,84.438639 49.305314,84.202453 48.123451,87.039168 47.650511,90.112159 48.123451,93.42157 46.468611,93.185118 45.759452,92.948856 45.759452,92.948856 44.341101,79.001517 58.288575,70.727725 69.635545,65.76332 56.634109,70.254907 48.596485,76.164489 45.287066,83.256808 45.050614,46.379236 79.32762,60.090379 95.639049,39.523668 Z m -68.79073,-6.382645 c 15.601724,4.964284 24.112303,13.711143 25.766711,26.003475 -3.309419,2.836704 -6.145889,6.382637 -7.564691,11.583218 -1.654822,-3.309411 -3.073174,-7.800867 -3.782342,-13.001447 0.472715,5.909696 1.654822,10.874092 3.309402,14.656441 -0.472715,1.654815 -0.709176,3.073174 -0.709176,4.964286 C 24.247105,68.600605 37.958238,48.034465 26.847381,33.141838 Z"
           fill-rule="evenodd"
           id="path10834-6"
           style="fill:#ffffff;fill-opacity:1;stroke-width:0.0573258"
           inkscape:label="Leaf" /></g></g><g
       aria-label="EMONI"
       id="text370"
       style="font-size:10.5833px;line-height:1.25;fill:#ffffff;stroke-width:0.264583"><path
         d="m 159.47294,115.69553 q -2.21192,0 -3.41842,-1.13947 -1.13947,-1.2065 -1.13947,-3.41842 V 72.998824 q 0,-2.211917 1.13947,-3.35139 1.2065,-1.2065 3.41842,-1.2065 h 23.92892 q 1.6757,0 2.54706,0.871361 0.93839,0.871362 0.93839,2.480029 0,1.675695 -0.93839,2.614084 -0.87136,0.871361 -2.54706,0.871361 h -20.24239 v 13.003394 h 18.76778 q 1.74272,0 2.61409,0.871361 0.87136,0.871362 0.87136,2.547057 0,1.675695 -0.87136,2.547056 -0.87137,0.871362 -2.61409,0.871362 H 163.15947 V 108.8587 h 20.24239 q 1.6757,0 2.54706,0.87136 0.93839,0.87136 0.93839,2.54706 0,1.67569 -0.93839,2.54705 -0.87136,0.87136 -2.54706,0.87136 z"
         style="font-size:67.0278px;font-family:Nunito;-inkscape-font-specification:'Nunito, @wght=700';font-variation-settings:'wght' 700"
         id="path897" /><path
         d="m 198.95232,116.23176 q -1.87678,0 -2.88219,-1.07245 -1.00542,-1.07244 -1.00542,-2.94922 V 71.926379 q 0,-1.943806 1.07244,-2.949223 1.07245,-1.072445 2.94923,-1.072445 1.67569,0 2.61408,0.670278 1.00542,0.603251 1.80975,2.14489 l 16.55587,30.631701 h -2.14489 l 16.55587,-30.631701 q 0.80433,-1.541639 1.74272,-2.14489 0.93839,-0.670278 2.61408,-0.670278 1.87678,0 2.8822,1.072445 1.00542,1.005417 1.00542,2.949223 v 40.283711 q 0,1.87678 -1.00542,2.94922 -0.93839,1.07245 -2.8822,1.07245 -1.87678,0 -2.88219,-1.07245 -1.00542,-1.07244 -1.00542,-2.94922 V 81.176216 h 1.47461 l -14.07584,25.671644 q -0.67027,1.13948 -1.40758,1.6757 -0.73731,0.53622 -2.01083,0.53622 -1.27353,0 -2.07787,-0.53622 -0.80433,-0.60325 -1.40758,-1.6757 L 201.23127,81.109188 h 1.60866 v 31.100902 q 0,1.87678 -1.00541,2.94922 -0.93839,1.07245 -2.8822,1.07245 z"
         style="font-size:67.0278px;font-family:Nunito;-inkscape-font-specification:'Nunito, @wght=700';font-variation-settings:'wght' 700"
         id="path899" /><path
         d="m 274.29157,116.36581 q -6.83683,0 -11.99797,-3.01625 -5.09412,-3.01625 -7.90929,-8.4455 -2.81516,-5.496282 -2.81516,-12.86934 0,-5.563308 1.60866,-9.987143 1.60867,-4.490862 4.5579,-7.641169 3.01625,-3.217334 7.17197,-4.893029 4.22275,-1.742723 9.38389,-1.742723 6.90387,0 11.99798,3.016251 5.09411,2.949223 7.90928,8.378475 2.81517,5.429252 2.81517,12.80231 0,5.563308 -1.60867,10.054168 -1.60867,4.49086 -4.62492,7.7082 -2.94922,3.21733 -7.17197,4.96006 -4.15573,1.67569 -9.31687,1.67569 z m 0,-7.37306 q 4.35681,0 7.37306,-2.01083 3.08328,-2.01083 4.69195,-5.83142 1.67569,-3.820584 1.67569,-9.11578 0,-8.043336 -3.6195,-12.467171 -3.55247,-4.423835 -10.1212,-4.423835 -4.28978,0 -7.37306,2.010834 -3.08328,1.943806 -4.75897,5.764391 -1.60867,3.753557 -1.60867,9.115781 0,7.97631 3.6195,12.46717 3.61951,4.49086 10.1212,4.49086 z"
         style="font-size:67.0278px;font-family:Nunito;-inkscape-font-specification:'Nunito, @wght=700';font-variation-settings:'wght' 700"
         id="path901" /><path
         d="m 309.74928,116.23176 q -1.94381,0 -3.01625,-1.07245 -1.00542,-1.07244 -1.00542,-3.08328 V 72.194491 q 0,-2.077862 1.00542,-3.150307 1.07244,-1.139473 2.74813,-1.139473 1.54164,0 2.27895,0.60325 0.80433,0.536223 1.87678,1.876779 l 25.67165,33.31282 h -1.74273 V 71.993407 q 0,-1.943806 1.00542,-3.016251 1.07245,-1.072445 3.01625,-1.072445 1.94381,0 2.94923,1.072445 1.00541,1.072445 1.00541,3.016251 v 40.216683 q 0,1.87678 -0.93839,2.94922 -0.93839,1.07245 -2.54705,1.07245 -1.54164,0 -2.48003,-0.60325 -0.87136,-0.60325 -1.94381,-1.94381 L 312.02822,80.371882 h 1.6757 v 31.704148 q 0,2.01084 -1.00542,3.08328 -1.00542,1.07245 -2.94922,1.07245 z"
         style="font-size:67.0278px;font-family:Nunito;-inkscape-font-specification:'Nunito, @wght=700';font-variation-settings:'wght' 700"
         id="path903" /><path
         d="m 360.15412,116.23176 q -2.07786,0 -3.21733,-1.13948 -1.07245,-1.2065 -1.07245,-3.28436 V 72.328546 q 0,-2.144889 1.07245,-3.284362 1.13947,-1.139473 3.21733,-1.139473 2.07786,0 3.15031,1.139473 1.13947,1.139473 1.13947,3.284362 v 39.479374 q 0,2.07786 -1.07244,3.28436 -1.07245,1.13948 -3.21734,1.13948 z"
         style="font-size:67.0278px;font-family:Nunito;-inkscape-font-specification:'Nunito, @wght=700';font-variation-settings:'wght' 700"
         id="path905" /></g></g></svg>
